<svg width="50" height="50" viewBox="0 0 50 50" fill="none" xmlns="http://www.w3.org/2000/svg">
<rect y="10.891" width="40" height="40" rx="6" transform="rotate(-15.7997 0 10.891)" fill="#2ABA60"/>
<g filter="url(#filter0_b_164_248)">
<rect x="14" y="7.68991" width="34" height="34" rx="5.1" fill="white" fill-opacity="0.43"/>
</g>
<path fill-rule="evenodd" clip-rule="evenodd" d="M38.4742 16.6036L43.5376 23.3204L40.5972 25.6727L38.7262 29.4147L32.2738 23.5L30.4724 23.8603L29.1553 26.0555C29.0027 26.3438 28.6803 26.7254 28.1553 26.8459C27.5597 26.9826 26.9761 26.7267 26.4697 26.2203C25.6124 25.363 25.3709 24.3783 25.8876 23.75L27.779 20.4399H26.8483L22.71 25.3393L24.0813 26.8459L23 27.6899L21.1889 25.9395L17.9123 23.2715L23.9187 16.6644L26.7631 18.9399H35.7244L38.4742 16.6036ZM35.6181 20.4399H30.2271L29.0633 21.2158L27.1319 24.5958C27.1545 24.6755 27.2378 24.8671 27.5303 25.1596C27.676 25.3053 27.7733 25.3569 27.8164 25.3738C27.8222 25.3666 27.8268 25.3593 27.8292 25.3545L27.8421 25.3288L29.5276 22.5196L32.7262 21.8798L38.2738 26.9652L39.1253 25.2623L35.6181 20.4399ZM40.1447 24.1137L41.4625 23.0595L38.2336 18.7763L37.0156 19.8112L40.1447 24.1137ZM25.43 19.7944L24.0813 18.7155L20.0877 23.1084L21.5945 24.3354L25.43 19.7944ZM31.4697 36.2203L30 34.6899L31.0607 33.6293L32.5303 35.1596L31.4697 36.2203Z" fill="white"/>
<path fill-rule="evenodd" clip-rule="evenodd" d="M23.3937 27.3909L22.8061 28.057L23.6242 28.7787L24.2118 28.1126L23.3937 27.3909ZM24.0949 26.0093C23.7734 25.7256 23.2166 25.8314 22.8512 26.2456L21.602 27.6616C21.2367 28.0757 21.2011 28.6414 21.5227 28.9251L22.9229 30.1604C23.2445 30.444 23.8013 30.3382 24.1667 29.9241L25.4159 28.5081C25.7812 28.0939 25.8168 27.5282 25.4952 27.2446L24.0949 26.0093Z" fill="white"/>
<path fill-rule="evenodd" clip-rule="evenodd" d="M26.0624 29.0788L24.85 30.4532L25.5871 31.1034L26.7995 29.7291L26.0624 29.0788ZM26.7146 27.6539C26.3388 27.3224 25.7381 27.3895 25.3727 27.8036L23.4987 29.9278C23.1334 30.342 23.1418 30.9465 23.5175 31.2779L24.935 32.5284C25.3107 32.8599 25.9115 32.7928 26.2769 32.3787L28.1508 30.2544C28.5162 29.8403 28.5078 29.2358 28.132 28.9043L26.7146 27.6539Z" fill="white"/>
<path fill-rule="evenodd" clip-rule="evenodd" d="M27.7298 30.7908L26.5695 32.1061L27.3053 32.7552L28.4656 31.44L27.7298 30.7908ZM28.3854 29.369C28.0135 29.0409 27.4158 29.1106 27.0504 29.5248L25.2286 31.59C24.8632 32.0041 24.8685 32.6058 25.2404 32.9339L26.6496 34.1771C27.0216 34.5052 27.6192 34.4354 27.9846 34.0212L29.8064 31.9561C30.1718 31.5419 30.1665 30.9402 29.7946 30.6121L28.3854 29.369Z" fill="white"/>
<path fill-rule="evenodd" clip-rule="evenodd" d="M29.5096 32.3506L28.5997 33.382L29.5251 34.2228L30.435 33.1915L29.5096 32.3506ZM30.1593 30.9235C29.7809 30.5897 29.1779 30.6548 28.8126 31.069L27.2412 32.8502C26.8758 33.2644 26.8864 33.8708 27.2648 34.2046L28.6652 35.44C29.0436 35.7738 29.6466 35.7087 30.0119 35.2946L31.5833 33.5133C31.9487 33.0991 31.9381 32.4928 31.5597 32.1589L30.1593 30.9235Z" fill="white"/>
<path fill-rule="evenodd" clip-rule="evenodd" d="M33.0845 34.2703L32.0333 33.2266C31.7393 32.9347 31.7376 32.4598 32.0295 32.1659V32.1659C32.3213 31.872 32.7962 31.8703 33.0901 32.1621L34.1413 33.2059C34.9294 33.9883 34.9339 35.2614 34.1515 36.0494L34.0745 36.127C33.3346 36.8722 32.1306 36.8764 31.3854 36.1365L32.4423 35.0721C32.5996 35.2283 32.8538 35.2274 33.01 35.0701L33.087 34.9925C33.2858 34.7924 33.2846 34.469 33.0845 34.2703Z" fill="white"/>
<path fill-rule="evenodd" clip-rule="evenodd" d="M34.426 32.3671L32.6984 30.6517C32.4044 30.3598 32.4027 29.885 32.6946 29.591V29.591C32.9864 29.2971 33.4613 29.2954 33.7552 29.5872L35.4829 31.3026C36.2255 32.04 36.2298 33.2398 35.4924 33.9825C34.755 34.7251 33.5552 34.7294 32.8126 33.992L32.612 33.7928L33.6689 32.7284L33.8695 32.9276C34.0242 33.0813 34.2743 33.0804 34.428 32.9256C34.5817 32.7708 34.5808 32.5207 34.426 32.3671Z" fill="white"/>
<path fill-rule="evenodd" clip-rule="evenodd" d="M36.0815 30.6752L33.4373 28.0497C33.1434 27.7579 33.1417 27.283 33.4336 26.989V26.989C33.7254 26.6951 34.2003 26.6934 34.4942 26.9853L37.1384 29.6107C37.8965 30.3635 37.9009 31.5883 37.1482 32.3464C36.3954 33.1045 35.1706 33.1089 34.4125 32.3561L33.9285 31.8755L34.9853 30.8111L35.4694 31.2917C35.6396 31.4607 35.9147 31.4597 36.0837 31.2895C36.2528 31.1193 36.2518 30.8442 36.0815 30.6752Z" fill="white"/>
<path fill-rule="evenodd" clip-rule="evenodd" d="M37.7787 28.7773L34.6692 25.6898L35.7261 24.6254L38.8356 27.7129C39.6306 28.5023 39.6352 29.7868 38.8458 30.5819C38.0564 31.3769 36.7719 31.3815 35.9768 30.5921L35.5597 30.1779L36.6166 29.1134L37.0337 29.5276C37.2409 29.7334 37.5756 29.7322 37.7814 29.525C37.9871 29.3178 37.9859 28.9831 37.7787 28.7773Z" fill="white"/>
<defs>
<filter id="filter0_b_164_248" x="2" y="-4.31009" width="58" height="58" filterUnits="userSpaceOnUse" color-interpolation-filters="sRGB">
<feFlood flood-opacity="0" result="BackgroundImageFix"/>
<feGaussianBlur in="BackgroundImageFix" stdDeviation="6"/>
<feComposite in2="SourceAlpha" operator="in" result="effect1_backgroundBlur_164_248"/>
<feBlend mode="normal" in="SourceGraphic" in2="effect1_backgroundBlur_164_248" result="shape"/>
</filter>
</defs>
</svg>
