<svg width="52" height="51" viewBox="0 0 52 51" fill="none" xmlns="http://www.w3.org/2000/svg">
<path fill-rule="evenodd" clip-rule="evenodd" d="M41.5004 36.2582V11.7948C41.5004 8.17588 38.5667 5.24214 34.9477 5.24214C31.3288 5.24214 28.395 8.17588 28.395 11.7948V27.0844C28.395 28.532 27.2215 29.7055 25.7739 29.7055V29.7055C24.3264 29.7055 23.1529 28.532 23.1529 27.0844V11.7948C23.1529 5.28072 28.4336 -7.77841e-06 34.9477 -7.77841e-06C41.4618 -7.77841e-06 46.7426 5.28072 46.7426 11.7948V31.0161C46.7426 33.9112 44.3956 36.2582 41.5004 36.2582V36.2582Z" fill="#1955A0"/>
<path fill-rule="evenodd" clip-rule="evenodd" d="M10.0474 36.2582V11.7948C10.0474 8.17588 12.9812 5.24214 16.6001 5.24214C20.2191 5.24214 23.1528 8.17588 23.1528 11.7948V27.0844C23.1528 28.532 24.3263 29.7055 25.7739 29.7055V29.7055C27.2215 29.7055 28.395 28.532 28.395 27.0844V11.7948C28.395 5.28072 23.1143 -7.77841e-06 16.6001 -7.77841e-06C10.086 -7.77841e-06 4.8053 5.28072 4.8053 11.7948V31.0161C4.8053 33.9112 7.15229 36.2582 10.0474 36.2582V36.2582Z" fill="#1955A0"/>
<path fill-rule="evenodd" clip-rule="evenodd" d="M32.3267 8.73688V26.2107C32.3267 29.8297 29.393 32.7634 25.774 32.7634C22.1551 32.7634 19.2213 29.8297 19.2213 26.2107V8.73688V8.73688C16.3262 8.73688 13.9792 11.0839 13.9792 13.979V26.2107C13.9792 32.7248 19.2599 38.0056 25.774 38.0056C32.2881 38.0056 37.5688 32.7248 37.5688 26.2107V13.979C37.5688 11.0839 35.2219 8.73688 32.3267 8.73688V8.73688Z" fill="#E61D4D"/>
<path d="M3.4074 45.6616V47.7113C3.4074 48.2006 3.27635 48.5675 3.01424 48.8122C2.75562 49.0533 2.3712 49.1739 1.86096 49.1739C1.35422 49.1739 0.969798 49.0533 0.707691 48.8122C0.445583 48.5675 0.314529 48.2006 0.314529 47.7113V45.6616H1.22142V47.727C1.22142 47.9752 1.27384 48.1604 1.37869 48.2827C1.48702 48.405 1.64778 48.4662 1.86096 48.4662C2.07764 48.4662 2.2384 48.405 2.34324 48.2827C2.45158 48.1604 2.50575 47.9752 2.50575 47.727V45.6616H3.4074ZM7.90496 45.6616V49.1215H6.90371L5.82907 47.25L5.56696 46.7363H5.56172L5.58269 47.3758V49.1215H4.78588V45.6616H5.78713L6.86177 47.5331L7.12388 48.0468H7.12912L7.10815 47.4073V45.6616H7.90496ZM10.2545 45.6616V49.1215H9.3529V45.6616H10.2545ZM14.6127 45.6616V46.3588H13.4856V49.1215H12.5839V46.3588H11.4516V45.6616H14.6127ZM15.8096 49.1215V45.6616H18.504V46.3588H16.7112V47.0613H18.1371V47.7166H16.7112V48.4243H18.5722V49.1215H15.8096ZM21.2659 45.6616C21.8076 45.6616 22.2217 45.8119 22.5083 46.1125C22.7984 46.413 22.9434 46.8394 22.9434 47.3915C22.9434 47.9437 22.7984 48.3701 22.5083 48.6706C22.2217 48.9712 21.8076 49.1215 21.2659 49.1215H19.7981V45.6616H21.2659ZM21.1768 48.44C21.4703 48.44 21.6835 48.3526 21.8163 48.1779C21.9526 47.9996 22.0208 47.7375 22.0208 47.3915C22.0208 47.0456 21.9526 46.7852 21.8163 46.6105C21.6835 46.4322 21.4703 46.3431 21.1768 46.3431H20.6997V48.44H21.1768ZM30.4287 45.6616V49.1215H29.6319V47.5331L29.6581 46.4689H29.6476L28.7931 49.1215H28.0645L27.21 46.4689H27.1995L27.2257 47.5331V49.1215H26.4237V45.6616H27.708L28.2532 47.423L28.4472 48.1569H28.4576L28.6568 47.4282L29.1968 45.6616H30.4287ZM35.0216 49.1215H34.0938L33.8526 48.3404H32.6679L32.4215 49.1215H31.5146L32.7308 45.6616H33.8107L35.0216 49.1215ZM32.8357 47.727H33.6849L33.2603 46.3274L32.8357 47.727ZM37.7568 45.6616C38.1691 45.6616 38.4889 45.7595 38.7161 45.9552C38.9467 46.1474 39.0621 46.4043 39.0621 46.7258C39.0621 47.0788 38.9485 47.3479 38.7213 47.5331C38.4942 47.7183 38.1744 47.8109 37.762 47.8109L37.6781 47.8581H36.9914V49.1215H36.1055V45.6616H37.7568ZM37.631 47.2186C37.8057 47.2186 37.9367 47.1836 38.0241 47.1137C38.1115 47.0438 38.1552 46.932 38.1552 46.7782C38.1552 46.6279 38.1115 46.5179 38.0241 46.448C37.9367 46.3781 37.8057 46.3431 37.631 46.3431H36.9914V47.2186H37.631ZM38.1604 47.4073L39.2665 49.1215H38.2705L37.3846 47.6065L38.1604 47.4073ZM43.5412 45.6616L41.9162 47.6065L41.8585 47.4702L41.0355 48.4714L40.8625 47.7428L42.54 45.6616H43.5412ZM41.3028 45.6616V49.1215H40.4012V45.6616H41.3028ZM42.2097 46.8044L43.6041 49.1215H42.5819L41.5335 47.3077L42.2097 46.8044ZM44.7174 49.1215V45.6616H47.4118V46.3588H45.619V47.0613H47.0449V47.7166H45.619V48.4243H47.48V49.1215H44.7174ZM51.6153 45.6616V46.3588H50.4882V49.1215H49.5866V46.3588H48.4543V45.6616H51.6153Z" fill="#1955A0"/>
</svg>
