<svg width="89" height="20" viewBox="0 0 89 20" fill="none" xmlns="http://www.w3.org/2000/svg">
<path fill-rule="evenodd" clip-rule="evenodd" d="M10.7514 0.055031C8.75188 -0.161394 6.73621 0.263852 4.98144 1.27232C3.22667 2.28078 1.81895 3.82296 0.951763 5.68688C0.0845767 7.55079 -0.199501 9.64495 0.138576 11.6815C0.476653 13.718 1.42029 15.597 2.83978 17.0601C4.25927 18.5232 6.08493 19.4987 8.06583 19.8524C10.0467 20.206 12.0856 19.9206 13.9022 19.0353C15.7188 18.15 17.224 16.7083 18.2109 14.9083C19.1977 13.1083 19.6178 11.0384 19.4134 8.98319C19.1884 6.69864 18.2042 4.56352 16.6265 2.93734C15.0488 1.31116 12.974 0.293262 10.7514 0.055031ZM10.436 15.292C9.36064 15.4403 8.26707 15.2385 7.30902 14.7151C6.35096 14.1918 5.57659 13.3731 5.09474 12.3741C4.61289 11.3752 4.44778 10.2462 4.62261 9.14584C4.79744 8.04549 5.30343 7.02909 6.06946 6.23949C6.83549 5.44989 7.82305 4.92678 8.89335 4.74369C9.96365 4.5606 11.0629 4.72673 12.0366 5.21873C13.0102 5.71073 13.8094 6.50386 14.3217 7.48667C14.8341 8.46947 15.0338 9.59253 14.8929 10.698C14.745 11.8608 14.2283 12.941 13.4225 13.7715C12.6168 14.602 11.5672 15.1364 10.436 15.292ZM24.6185 0.450642C24.281 0.451472 23.9479 0.529615 23.6435 0.679383C23.339 0.829151 23.0709 1.04678 22.8586 1.31643C22.6463 1.58608 22.4952 1.90096 22.4163 2.23818C22.3373 2.57539 22.3325 2.92645 22.4022 3.26581C22.6158 4.36521 23.6151 5.1164 24.7038 5.1164H31.0216L21.1897 18.486C21.117 18.5847 21.0725 18.7022 21.0611 18.8255C21.0498 18.9487 21.0721 19.0728 21.1255 19.1837C21.1789 19.2947 21.2614 19.3882 21.3636 19.4537C21.4658 19.5192 21.5838 19.5541 21.7043 19.5546H37.1265C38.2145 19.5546 39.2146 18.8036 39.4281 17.704C39.4978 17.3647 39.4931 17.0137 39.4142 16.6765C39.3353 16.3393 39.1843 16.0245 38.9721 15.7548C38.7599 15.4851 38.4919 15.2675 38.1876 15.1176C37.8832 14.9677 37.5502 14.8895 37.2127 14.8885H29.515L39.3393 1.52927C39.4128 1.42961 39.4577 1.3109 39.4691 1.18646C39.4806 1.06201 39.458 0.936755 39.404 0.824743C39.35 0.71273 39.2667 0.618392 39.1635 0.552313C39.0602 0.486233 38.9411 0.451026 38.8194 0.450642H24.6185ZM86.2449 0.50446C85.7343 0.629216 85.2804 0.929288 84.9583 1.35506C84.6362 1.78083 84.4652 2.30681 84.4735 2.84602V10.6144L72.2233 0.597368C72.1273 0.51901 72.0116 0.470111 71.8897 0.456295C71.7678 0.442479 71.6446 0.464308 71.5342 0.51927C71.4238 0.574232 71.3308 0.660095 71.2658 0.766981C71.2008 0.873866 71.1665 0.997433 71.1668 1.12346V17.1634C71.1585 17.7026 71.3295 18.2286 71.6516 18.6544C71.9737 19.0801 72.4276 19.3802 72.9382 19.5049C73.2698 19.5799 73.6135 19.5774 73.944 19.4977C74.2745 19.4179 74.5833 19.263 74.8478 19.0442C75.1122 18.8255 75.3255 18.5485 75.4719 18.2338C75.6183 17.919 75.694 17.5745 75.6935 17.2257V9.39013L87.9439 19.4073C88.0399 19.4856 88.1555 19.5345 88.2774 19.5483C88.3992 19.5621 88.5224 19.5403 88.6327 19.4853C88.7431 19.4304 88.8361 19.3446 88.901 19.2377C88.966 19.1309 89.0003 19.0074 89 18.8814V2.78295C89.0004 2.4342 88.9245 2.08981 88.7781 1.77517C88.6317 1.46053 88.4184 1.18368 88.154 0.96501C87.8896 0.746345 87.5808 0.591448 87.2504 0.511739C86.92 0.43203 86.5764 0.429543 86.2449 0.50446ZM54.3488 4.6698C59.5303 4.6698 63.4019 7.48346 63.4019 10.0003C63.4019 12.5171 59.5303 15.3307 54.3488 15.3307C49.1673 15.3307 45.2958 12.5171 45.2958 10.0003C45.2958 7.48346 49.1673 4.6698 54.3488 4.6698ZM54.3488 0.00423416C46.8489 0.00423416 40.7691 4.47964 40.7691 10.0003C40.7691 15.5209 46.8489 19.9963 54.3488 19.9963C61.8488 19.9963 67.9284 15.5209 67.9284 10.0003C67.9284 4.47964 61.8486 0.00423416 54.3488 0.00423416Z" fill="#0069FF"/>
</svg>
