<svg width="50" height="50" viewBox="0 0 50 50" fill="none" xmlns="http://www.w3.org/2000/svg">
<rect y="10.8911" width="40" height="40" rx="6" transform="rotate(-15.7997 0 10.8911)" fill="#00AD6D"/>
<g filter="url(#filter0_b_76_668)">
<rect x="14" y="7.68994" width="34" height="34" rx="5.1" fill="white" fill-opacity="0.43"/>
</g>
<path d="M27.8239 31.5881L28.0825 30.6221C27.8464 30.5589 27.5953 30.5843 27.3767 30.6936L27.8239 31.5881ZM23 34L22.0101 33.8586C21.9574 34.2268 22.1136 34.5938 22.4153 34.8112C22.717 35.0287 23.1145 35.0608 23.4472 34.8944L23 34ZM23.6532 29.4274L24.6432 29.5688C24.6913 29.2321 24.5649 28.8941 24.3078 28.6714L23.6532 29.4274ZM31 33C36.8554 33 42 29.1673 42 24H40C40 27.6693 36.1903 31 31 31V33ZM27.5652 32.554C28.648 32.8439 29.8029 33 31 33V31C29.9766 31 28.9955 30.8666 28.0825 30.6221L27.5652 32.554ZM23.4472 34.8944L28.2711 32.4825L27.3767 30.6936L22.5528 33.1056L23.4472 34.8944ZM22.6633 29.286L22.0101 33.8586L23.9899 34.1414L24.6432 29.5688L22.6633 29.286ZM20 24C20 26.4332 21.1717 28.6014 22.9986 30.1834L24.3078 28.6714C22.8409 27.4012 22 25.7562 22 24H20ZM31 15C25.1446 15 20 18.8327 20 24H22C22 20.3307 25.8097 17 31 17V15ZM42 24C42 18.8327 36.8554 15 31 15V17C36.1903 17 40 20.3307 40 24H42Z" fill="white"/>
<defs>
<filter id="filter0_b_76_668" x="2" y="-4.31006" width="58" height="58" filterUnits="userSpaceOnUse" color-interpolation-filters="sRGB">
<feFlood flood-opacity="0" result="BackgroundImageFix"/>
<feGaussianBlur in="BackgroundImageFix" stdDeviation="6"/>
<feComposite in2="SourceAlpha" operator="in" result="effect1_backgroundBlur_76_668"/>
<feBlend mode="normal" in="SourceGraphic" in2="effect1_backgroundBlur_76_668" result="shape"/>
</filter>
</defs>
</svg>
