<svg width="40" height="40" viewBox="0 0 40 40" fill="none" xmlns="http://www.w3.org/2000/svg">
<path d="M17.4174 23.1813L17.0204 28.7653C17.5884 28.7653 17.8344 28.5213 18.1294 28.2283L20.7925 25.6833L26.3106 29.7243C27.3226 30.2883 28.0357 29.9913 28.3087 28.7933L31.9308 11.8214L31.9318 11.8204C32.2528 10.3244 31.3907 9.73941 30.4047 10.1064L9.1142 18.2574C7.66117 18.8214 7.68317 19.6314 8.8672 19.9984L14.3103 21.6913L26.9536 13.7804C27.5486 13.3864 28.0897 13.6044 27.6446 13.9984L17.4174 23.1813Z" fill="white"/>
<path fill-rule="evenodd" clip-rule="evenodd" d="M37 5C37 3.89543 36.1046 3 35 3H5C3.89543 3 3 3.89543 3 5V35C3 36.1046 3.89543 37 5 37H35C36.1046 37 37 36.1046 37 35V5ZM5 0C2.23858 0 0 2.23858 0 5V35C0 37.7614 2.23858 40 5 40H35C37.7614 40 40 37.7614 40 35V5C40 2.23858 37.7614 0 35 0H5Z" fill="white"/>
</svg>
