<svg width="40" height="40" viewBox="0 0 40 40" fill="none" xmlns="http://www.w3.org/2000/svg">
<path d="M31.7132 24.3401C30.9766 23.4567 30.1098 22.7027 29.2897 21.9021C28.5498 21.1804 28.5032 20.7618 29.098 19.9288C29.7471 19.0198 30.4452 18.1455 31.1002 17.2406C31.7116 16.3948 32.3366 15.5514 32.6584 14.5387C32.8625 13.8945 32.682 13.6099 32.0213 13.4971C31.9075 13.4774 31.7898 13.4763 31.6739 13.4763L27.7543 13.4717C27.2716 13.4645 27.0047 13.675 26.834 14.1029C26.6035 14.6813 26.3659 15.2591 26.0913 15.8172C25.4683 17.0826 24.7725 18.3058 23.7971 19.3415C23.582 19.5699 23.3441 19.8586 22.9846 19.7396C22.535 19.5756 22.4024 18.8347 22.4099 18.5842L22.406 14.0601C22.3188 13.4138 22.1755 13.1256 21.5338 13L17.4622 13.0008C16.9187 13.0008 16.6462 13.2107 16.356 13.5507C16.1886 13.7471 16.1381 13.8745 16.4821 13.9396C17.1579 14.0678 17.5386 14.5051 17.6396 15.1827C17.8017 16.2653 17.7904 17.3523 17.6971 18.4393C17.6696 18.7567 17.615 19.0733 17.4891 19.3697C17.2923 19.8355 16.9744 19.9304 16.5567 19.6438C16.1786 19.3843 15.913 19.0182 15.653 18.6506C14.6765 17.2708 13.8974 15.7829 13.2622 14.2193C13.0786 13.7676 12.762 13.4938 12.2834 13.4863C11.1074 13.4676 9.93119 13.4645 8.75523 13.4874C8.04766 13.5007 7.83667 13.8442 8.12483 14.4856C9.40564 17.3347 10.8313 20.1044 12.6923 22.6276C13.6477 23.9225 14.7447 25.0657 16.1619 25.8758C17.7681 26.7941 19.497 27.0705 21.318 26.9853C22.1707 26.9453 22.4268 26.7236 22.4663 25.8737C22.4929 25.2923 22.5588 24.7142 22.8457 24.1917C23.1272 23.679 23.5535 23.5813 24.045 23.9002C24.2908 24.0599 24.498 24.2632 24.6936 24.4776C25.1735 25.0026 25.6362 25.5435 26.1344 26.0509C26.7591 26.6867 27.4993 27.0622 28.4299 26.9856L32.0323 26.9864C32.6128 26.9484 32.9137 26.2367 32.5805 25.5889C32.3464 25.1351 32.0393 24.7311 31.7132 24.3401Z" fill="white"/>
<path fill-rule="evenodd" clip-rule="evenodd" d="M37 5C37 3.89543 36.1046 3 35 3H5C3.89543 3 3 3.89543 3 5V35C3 36.1046 3.89543 37 5 37H35C36.1046 37 37 36.1046 37 35V5ZM5 0C2.23858 0 0 2.23858 0 5V35C0 37.7614 2.23858 40 5 40H35C37.7614 40 40 37.7614 40 35V5C40 2.23858 37.7614 0 35 0H5Z" fill="white"/>
</svg>
