<svg width="40" height="30" viewBox="0 0 40 30" fill="none" xmlns="http://www.w3.org/2000/svg">
<path d="M19.9986 29.5309C19.9952 29.5309 19.9916 29.5309 19.9879 29.5309C18.7809 29.5227 8.11075 29.4253 5.08767 28.6078C2.97494 28.0398 1.30715 26.3739 0.737687 24.2608C-0.0533298 21.2912 -0.00297568 15.5737 0.0025175 15.1172C-0.0026705 14.6627 -0.053635 8.89796 0.735246 5.90388C0.736161 5.90113 0.736772 5.89808 0.737687 5.89533C1.30074 3.8064 3.00606 2.08887 5.08248 1.51941C5.08767 1.51788 5.09316 1.51666 5.09835 1.51514C8.08725 0.729615 18.7785 0.633484 19.9879 0.625244H20.0096C21.2196 0.633484 31.9182 0.730835 34.9135 1.54962C37.0207 2.11603 38.6873 3.77985 39.2583 5.89015C40.0789 8.88637 40.0029 14.6637 39.9947 15.1513C40.0005 15.6317 40.0484 21.2979 39.2619 24.2825C39.2613 24.2856 39.2604 24.2883 39.2598 24.2911C38.69 26.4041 37.0225 28.0701 34.9074 28.6386C34.9046 28.6395 34.9016 28.6401 34.8988 28.641C31.9102 29.4263 21.2187 29.5224 20.0096 29.5309C20.0059 29.5309 20.0022 29.5309 19.9986 29.5309ZM3.75588 6.70527C3.0613 9.3481 3.12691 15.0393 3.12752 15.0967V15.1379C3.10677 16.7163 3.17971 21.2872 3.75619 23.4521C4.03573 24.4888 4.85818 25.31 5.90127 25.5905C8.1318 26.1938 16.8223 26.3836 19.9986 26.4059C23.1831 26.3836 31.8864 26.199 34.1005 25.6198C35.1402 25.3384 35.9599 24.5199 36.2413 23.482C36.8184 21.2854 36.8907 16.7367 36.8697 15.1684C36.8697 15.1519 36.8697 15.1355 36.87 15.119C36.8986 13.5217 36.8422 8.89735 36.244 6.71504C36.2434 6.7129 36.2428 6.71076 36.2425 6.70863C35.9618 5.66737 35.139 4.84614 34.0959 4.56568C31.887 3.96174 23.1825 3.77253 19.9986 3.75025C16.8162 3.77253 8.12143 3.95685 5.90066 4.53547C4.8774 4.81928 4.03634 5.66981 3.75588 6.70527ZM37.751 23.8846H37.7519H37.751ZM16.0157 21.4059V8.74995L26.9533 15.0781L16.0157 21.4059Z" fill="white"/>
</svg>
